<?xml version="1.0" encoding="UTF-8" standalone="no"?>
<svg xmlns:rdf="http://www.w3.org/1999/02/22-rdf-syntax-ns#" xmlns="http://www.w3.org/2000/svg" height="9mm" width="63mm" version="1.1" xmlns:cc="http://creativecommons.org/ns#" xmlns:dc="http://purl.org/dc/elements/1.1/" viewBox="0.3 0 62.154885 8.83125">
 <metadata>
  <rdf:RDF>
   <cc:Work rdf:about="">
    <dc:format>image/svg+xml</dc:format>
    <dc:type rdf:resource="http://purl.org/dc/dcmitype/StillImage"/>
    <dc:title/>
   </cc:Work>
  </rdf:RDF>
 </metadata>
 <g transform="translate(0 -287.91)">
  <g aria-label="Biblioteca.io" stroke-width=".26458px" fill="#004880">
   <path style="font-variant-ligatures:normal;font-variant-numeric:normal;font-variant-caps:normal;font-feature-settings:normal" d="m1.564 295.45v-0.30488q0.69761 0 0.69761-0.50125v-4.7902q0-0.24288-0.12919-0.34106-0.12402-0.10335-0.56842-0.11368v-0.29972q1.5968-0.031 2.4546-0.031 1.1523 0 1.6691 0.33072 0.52192 0.32555 0.52192 1.1213 0 0.45474-0.29455 0.84747-0.28938 0.38756-0.76479 0.55809v0.0413q0.71828 0.0723 1.1627 0.48574 0.4444 0.4134 0.4444 1.049 0 0.86813-0.60976 1.4107-0.6046 0.53742-1.7828 0.53742zm1.7001-0.52709q0.38239 0.0517 0.90948 0.0517 0.8268 0 1.2144-0.37723 0.38756-0.37722 0.38756-0.97665 0-0.62527-0.43924-0.94565-0.43924-0.32555-1.2454-0.32555-0.54775 0-0.8268 0.0207zm0-3.0488h1.1885q0.25321 0 0.54259-0.39273t0.28938-0.84746q0-1.08-1.2764-1.08-0.21187 0-0.74412 0.031z"/>
   <path style="font-variant-ligatures:normal;font-variant-numeric:normal;font-variant-caps:normal;font-feature-settings:normal" d="m7.4859 295.45v-0.26354q0.64594-0.0103 0.64594-0.37206v-3.8291q0-0.38239-0.6356-0.39272v-0.28422h2.1703v0.28422q-0.6046 0.0103-0.6046 0.40306v3.8188q0 0.20153 0.12402 0.28938 0.12919 0.0827 0.47024 0.0827v0.26354z"/>
   <path style="font-variant-ligatures:normal;font-variant-numeric:normal;font-variant-caps:normal;font-feature-settings:normal" d="m10.493 295.45v-0.28421q0.65627 0 0.65627-0.40307v-3.7774q0-0.20153-0.12919-0.28938-0.12402-0.093-0.52708-0.10334v-0.27388q1.0697-0.0207 2.253-0.0207 1.018 0 1.4521 0.26871 0.43407 0.26871 0.43407 0.91464 0 0.35139-0.23254 0.64594-0.23254 0.29454-0.64594 0.45474v0.031q0.52708 0.0723 0.90948 0.4134 0.38239 0.34105 0.38239 0.90948 0 0.68727-0.48058 1.1007-0.47541 0.4134-1.5244 0.4134zm1.5864-0.45474q0.48574 0.062 0.77512 0.062 1.2919 0 1.2867-1.08 0-0.51675-0.39273-0.76996-0.38756-0.25321-0.94048-0.25321-0.26354 0-0.72862 0.0207zm0-2.4339h1.018q0.21187 0 0.44957-0.32039 0.2377-0.32555 0.2377-0.6666 0-0.85781-1.0387-0.85264-0.2222 0-0.6666 0.0207z"/>
   <path style="font-variant-ligatures:normal;font-variant-numeric:normal;font-variant-caps:normal;font-feature-settings:normal" d="m15.826 295.45v-0.26354q0.35139-0.0103 0.49608-0.0982 0.14986-0.093 0.14986-0.28421v-3.8084q0-0.20153-0.14469-0.29972-0.13952-0.10334-0.50125-0.10334v-0.28422h2.222v0.28422q-0.36172 0-0.50125 0.10334-0.13435 0.0982-0.13435 0.29972v3.9686h1.4934q0.42373 0 0.71828-0.20153 0.29971-0.20153 0.61493-0.78545l0.2222 0.0775-0.48574 1.4262q-0.17053-0.031-0.40306-0.031z"/>
   <path style="font-variant-ligatures:normal;font-variant-numeric:normal;font-variant-caps:normal;font-feature-settings:normal" d="m20.653 295.45v-0.26354q0.64594-0.0103 0.64594-0.37206v-3.8291q0-0.38239-0.6356-0.39272v-0.28422h2.1703v0.28422q-0.6046 0.0103-0.6046 0.40306v3.8188q0 0.20153 0.12402 0.28938 0.12919 0.0827 0.47024 0.0827v0.26354z"/>
   <path style="font-variant-ligatures:normal;font-variant-numeric:normal;font-variant-caps:normal;font-feature-settings:normal" d="m23.531 292.97q0-1.2609 0.69761-2.0308 0.70278-0.77512 2.005-0.77512 1.2195 0 1.8706 0.72861 0.65627 0.72345 0.65627 1.9171 0 0.52708-0.15502 1.018-0.14986 0.48574-0.46507 0.89397-0.31005 0.40824-0.84747 0.64594-0.53225 0.2377-1.2195 0.2377-1.142 0-1.8448-0.72344-0.69761-0.72862-0.69761-1.912zm0.95598-0.11885q0 1.08 0.43924 1.6794 0.43924 0.59943 1.2092 0.59943 0.80613 0 1.235-0.59943 0.4289-0.59943 0.4289-1.6174 0-0.43407-0.08268-0.80613-0.07751-0.37723-0.25837-0.71828-0.18086-0.34622-0.52192-0.54775-0.33589-0.20153-0.81129-0.20153-0.69761 0-1.1679 0.53225-0.47024 0.52708-0.47024 1.6794z"/>
   <path style="font-variant-ligatures:normal;font-variant-numeric:normal;font-variant-caps:normal;font-feature-settings:normal" d="m29.37 291.75 0.11885-1.4366h4.9194l0.05167 1.4366h-0.25321q-0.18086-0.59426-0.31522-0.73378-0.12919-0.14469-0.50641-0.14469h-1.0077v3.9066q0 0.4134 0.73895 0.4134v0.26354h-2.3564v-0.26354q0.68728-0.0103 0.68728-0.40307v-3.917h-0.99732q-0.28421 0-0.4599 0.16536-0.1757 0.16536-0.37723 0.71311z"/>
   <path style="font-variant-ligatures:normal;font-variant-numeric:normal;font-variant-caps:normal;font-feature-settings:normal" d="m35.194 295.45v-0.27388q0.35139-0.0103 0.50125-0.0982 0.15502-0.093 0.15502-0.28421v-3.8188q0-0.38239-0.65627-0.38239v-0.28422h3.4829q0.34105 0 0.53742-0.0465l0.05167 1.3487h-0.23254q-0.12919-0.49608-0.32038-0.67177-0.18603-0.1757-0.49091-0.1757h-1.4417v1.85h0.84747q0.45474 0 0.45474-0.67694h0.27388v1.7466h-0.26354q-0.01033-0.6356-0.46507-0.6356h-0.84747v1.9275h1.5347q0.40306 0 0.70794-0.20153 0.31005-0.20153 0.62526-0.79579l0.23254 0.0775-0.49608 1.4262q-0.13952-0.031-0.35139-0.031z"/>
   <path style="font-variant-ligatures:normal;font-variant-numeric:normal;font-variant-caps:normal;font-feature-settings:normal" d="m40.356 293.07q0-1.142 0.8268-2.0308 0.8268-0.88881 1.9791-0.88881 0.70794 0 1.5347 0.33589l-0.21187 1.5451h-0.28421q-0.05167-0.83713-0.14986-0.94048-0.37206-0.43406-1.049-0.43406-0.77512 0-1.235 0.63043-0.45474 0.63043-0.45474 1.5709 0 1.0387 0.50125 1.6019 0.50124 0.55809 1.297 0.55809 0.42373 0 0.76996-0.11369 0.35139-0.11885 0.88881-0.38239l0.09818 0.23254q-0.29455 0.30488-0.8733 0.58392-0.57876 0.27388-1.1885 0.27388-1.1007 0-1.7776-0.67694-0.67177-0.68211-0.67177-1.8655z"/>
   <path style="font-variant-ligatures:normal;font-variant-numeric:normal;font-variant-caps:normal;font-feature-settings:normal" d="m45.022 295.45v-0.26354q0.1912 0 0.3979-0.11369 0.21187-0.11885 0.28938-0.31005l1.881-4.7231h0.2222l2.129 4.8264q0.06201 0.13952 0.25321 0.23254 0.17053 0.0879 0.34622 0.0879h0.03617v0.26354h-2.129v-0.26354q0.47541-0.0413 0.47541-0.26355 0-0.0723-0.04134-0.18086l-0.30488-0.75445h-2.067l-0.26354 0.71311q-0.04134 0.13952-0.04134 0.21187 0 0.24287 0.46507 0.27388v0.26354zm1.6691-1.9068h1.6949l-0.8578-2.0102h-0.04134z"/>
   <path style="font-variant-ligatures:normal;font-variant-numeric:normal;font-variant-caps:normal;font-feature-settings:normal" d="m51.043 294.92q0-0.28421 0.13952-0.46507 0.14469-0.18087 0.43924-0.18087 0.28421 0 0.43407 0.18087 0.14986 0.17569 0.14986 0.46507 0 0.27388-0.14986 0.44957-0.14469 0.17053-0.43407 0.17053-0.29455 0-0.43924-0.17053-0.13952-0.17569-0.13952-0.44957z"/>
   <path style="font-variant-ligatures:normal;font-variant-numeric:normal;font-variant-caps:normal;font-feature-settings:normal" d="m53.311 295.45v-0.26354q0.64594-0.0103 0.64594-0.37206v-3.8291q0-0.38239-0.6356-0.39272v-0.28422h2.1703v0.28422q-0.6046 0.0103-0.6046 0.40306v3.8188q0 0.20153 0.12402 0.28938 0.12919 0.0827 0.47024 0.0827v0.26354z"/>
   <path style="font-variant-ligatures:normal;font-variant-numeric:normal;font-variant-caps:normal;font-feature-settings:normal" d="m56.189 292.97q0-1.2609 0.69761-2.0308 0.70278-0.77512 2.005-0.77512 1.2195 0 1.8706 0.72861 0.65627 0.72345 0.65627 1.9171 0 0.52708-0.15502 1.018-0.14986 0.48574-0.46507 0.89397-0.31005 0.40824-0.84747 0.64594-0.53225 0.2377-1.2195 0.2377-1.142 0-1.8448-0.72344-0.69761-0.72862-0.69761-1.912zm0.95598-0.11885q0 1.08 0.43924 1.6794 0.43924 0.59943 1.2092 0.59943 0.80613 0 1.235-0.59943 0.4289-0.59943 0.4289-1.6174 0-0.43407-0.08268-0.80613-0.07751-0.37723-0.25837-0.71828-0.18086-0.34622-0.52192-0.54775-0.33589-0.20153-0.81129-0.20153-0.69761 0-1.1679 0.53225-0.47024 0.52708-0.47024 1.6794z"/>
  </g>
 </g>
</svg>