<?xml version="1.0" encoding="UTF-8" standalone="no"?>
<svg
   xmlns:dc="http://purl.org/dc/elements/1.1/"
   xmlns:cc="http://creativecommons.org/ns#"
   xmlns:rdf="http://www.w3.org/1999/02/22-rdf-syntax-ns#"
   xmlns:svg="http://www.w3.org/2000/svg"
   xmlns="http://www.w3.org/2000/svg"
   xmlns:sodipodi="http://sodipodi.sourceforge.net/DTD/sodipodi-0.dtd"
   xmlns:inkscape="http://www.inkscape.org/namespaces/inkscape"
   version="1.1"
   id="Layer_1"
   x="0px"
   y="0px"
   width="30px"
   height="60px"
   viewBox="-5 415.5 30 60"
   enable-background="new -5 415.5 30 60"
   xml:space="preserve"
   inkscape:version="0.48.5 r10040"
   sodipodi:docname="refresh.svg"><metadata
     id="metadata3146"><rdf:RDF><cc:Work
         rdf:about=""><dc:format>image/svg+xml</dc:format><dc:type
           rdf:resource="http://purl.org/dc/dcmitype/StillImage" /></cc:Work></rdf:RDF></metadata><defs
     id="defs3144" /><sodipodi:namedview
     pagecolor="#ffffff"
     bordercolor="#666666"
     borderopacity="1"
     objecttolerance="10"
     gridtolerance="10"
     guidetolerance="10"
     inkscape:pageopacity="0"
     inkscape:pageshadow="2"
     inkscape:window-width="1920"
     inkscape:window-height="1020"
     id="namedview3142"
     showgrid="false"
     inkscape:zoom="14.5"
     inkscape:cx="15.137931"
     inkscape:cy="30"
     inkscape:window-x="0"
     inkscape:window-y="27"
     inkscape:window-maximized="1"
     inkscape:current-layer="Layer_1" /><title
     id="title3134">Combined Shape</title><desc
     id="desc3136">Created with Sketch.</desc><g
     id="Page-1"
     style="fill:#eeeeec"><path
       id="Combined-Shape"
       fill="#424242"
       d="M-1.19,435.291l-1.34,3.641c-0.095,0.26-0.383,0.393-0.642,0.297   c-0.259-0.096-0.392-0.383-0.296-0.643l1.848-5.018c0.096-0.262,0.389-0.394,0.649-0.293l5.01,1.935   c0.257,0.099,0.386,0.389,0.286,0.646c-0.099,0.257-0.389,0.386-0.646,0.286l-4.076-1.574c1.576,4.25,5.658,7.17,10.315,7.17   c5.089,0,9.48-3.484,10.681-8.357c0.065-0.269,0.336-0.432,0.604-0.366s0.433,0.337,0.366,0.604   c-1.311,5.318-6.1,9.119-11.652,9.119C4.974,442.738,0.625,439.725-1.19,435.291z M21.106,425.947l1.341-3.641   c0.096-0.26,0.383-0.393,0.642-0.297s0.392,0.383,0.296,0.643l-1.847,5.018c-0.097,0.262-0.39,0.395-0.649,0.293l-5.01-1.934   c-0.258-0.1-0.387-0.39-0.287-0.646c0.1-0.258,0.39-0.387,0.646-0.287l4.077,1.574c-1.576-4.25-5.658-7.17-10.315-7.17   c-5.089,0-9.479,3.484-10.681,8.357c-0.066,0.269-0.337,0.433-0.605,0.366c-0.268-0.065-0.432-0.337-0.366-0.604   c1.311-5.318,6.1-9.119,11.652-9.119C14.943,418.5,19.291,421.514,21.106,425.947z"
       style="fill:#eeeeec" /></g><g
     id="Page-1_1_"
     style="fill:#ef2929"><path
       id="Combined-Shape_1_"
       fill="#0173FF"
       d="M-1.19,465.291l-1.34,3.641c-0.095,0.26-0.383,0.393-0.642,0.297   c-0.259-0.096-0.392-0.383-0.296-0.643l1.848-5.018c0.096-0.262,0.389-0.394,0.649-0.293l5.01,1.935   c0.257,0.099,0.386,0.389,0.286,0.646c-0.099,0.257-0.389,0.386-0.646,0.286l-4.076-1.574c1.576,4.25,5.658,7.17,10.315,7.17   c5.089,0,9.48-3.484,10.681-8.357c0.065-0.269,0.336-0.432,0.604-0.366s0.433,0.337,0.366,0.604   c-1.311,5.318-6.1,9.119-11.652,9.119C4.974,472.738,0.625,469.725-1.19,465.291z M21.106,455.947l1.341-3.641   c0.096-0.26,0.383-0.393,0.642-0.297s0.392,0.383,0.296,0.643l-1.847,5.018c-0.097,0.262-0.39,0.395-0.649,0.293l-5.01-1.934   c-0.258-0.1-0.387-0.39-0.287-0.646c0.1-0.258,0.39-0.387,0.646-0.287l4.077,1.574c-1.576-4.25-5.658-7.17-10.315-7.17   c-5.089,0-9.479,3.484-10.681,8.357c-0.066,0.269-0.337,0.433-0.605,0.366c-0.268-0.065-0.432-0.337-0.366-0.604   c1.311-5.318,6.1-9.119,11.652-9.119C14.943,448.5,19.291,451.514,21.106,455.947z"
       style="fill:#ef2929" /></g></svg>